<svg width="16" height="16" viewBox="0 0 16 16" fill="none" xmlns="http://www.w3.org/2000/svg">
<rect width="16" height="16" fill="#1B202D"/>
<path d="M3.39648 6.53516L2.54688 9H2.0332L3.10352 6.15625H3.43164L3.39648 6.53516ZM4.10742 9L3.25586 6.53516L3.21875 6.15625H3.54883L4.62305 9H4.10742ZM4.06641 7.94531V8.33398H2.51953V7.94531H4.06641Z" fill="#FFCD29"/>
<path d="M6.08008 8.42773C6.08008 8.38086 6.06836 8.33854 6.04492 8.30078C6.02148 8.26172 5.97656 8.22656 5.91016 8.19531C5.84505 8.16406 5.7487 8.13542 5.62109 8.10938C5.47135 8.07682 5.33919 8.03451 5.22461 7.98242C5.11133 7.93034 5.02279 7.86393 4.95898 7.7832C4.89648 7.70247 4.86523 7.60286 4.86523 7.48438C4.86523 7.36849 4.89779 7.26302 4.96289 7.16797C5.0293 7.07161 5.1237 6.99414 5.24609 6.93555C5.36849 6.87695 5.51302 6.84766 5.67969 6.84766C5.85677 6.84766 6.00846 6.8776 6.13477 6.9375C6.26237 6.99609 6.36003 7.07617 6.42773 7.17773C6.49544 7.27799 6.5293 7.39128 6.5293 7.51758H6.05859C6.05859 7.43294 6.02669 7.35807 5.96289 7.29297C5.90039 7.22786 5.80599 7.19531 5.67969 7.19531C5.59896 7.19531 5.5319 7.20833 5.47852 7.23438C5.42643 7.25911 5.38737 7.29167 5.36133 7.33203C5.33659 7.3724 5.32422 7.41667 5.32422 7.46484C5.32422 7.51172 5.33659 7.55273 5.36133 7.58789C5.38737 7.62174 5.43164 7.65234 5.49414 7.67969C5.55794 7.70573 5.64714 7.73112 5.76172 7.75586C5.92318 7.78971 6.06185 7.83333 6.17773 7.88672C6.29492 7.9388 6.38477 8.00651 6.44727 8.08984C6.50977 8.17188 6.54102 8.27604 6.54102 8.40234C6.54102 8.52604 6.50586 8.63607 6.43555 8.73242C6.36523 8.82878 6.26562 8.9043 6.13672 8.95898C6.00911 9.01237 5.85872 9.03906 5.68555 9.03906C5.49414 9.03906 5.33203 9.00521 5.19922 8.9375C5.06641 8.86849 4.96549 8.7806 4.89648 8.67383C4.82878 8.56576 4.79492 8.45378 4.79492 8.33789H5.25C5.25521 8.42513 5.2793 8.49479 5.32227 8.54688C5.36654 8.59766 5.42122 8.63477 5.48633 8.6582C5.55273 8.68034 5.62109 8.69141 5.69141 8.69141C5.77604 8.69141 5.84701 8.68034 5.9043 8.6582C5.96159 8.63477 6.00521 8.60352 6.03516 8.56445C6.0651 8.52409 6.08008 8.47852 6.08008 8.42773ZM7.52734 8.53125L8.01562 6.88672H8.31641L8.23438 7.37891L7.74219 9H7.47266L7.52734 8.53125ZM7.24023 6.88672L7.62109 8.53906L7.65234 9H7.35156L6.7793 6.88672H7.24023ZM8.77344 8.51953L9.14258 6.88672H9.60156L9.03125 9H8.73047L8.77344 8.51953ZM8.36719 6.88672L8.84961 8.51172L8.91016 9H8.64062L8.14258 7.37695L8.06055 6.88672H8.36719ZM11.1133 8.57617V7.56836C11.1133 7.45638 11.0827 7.36719 11.0215 7.30078C10.9603 7.23438 10.8665 7.20117 10.7402 7.20117C10.6634 7.20117 10.597 7.21419 10.541 7.24023C10.485 7.26628 10.4414 7.30143 10.4102 7.3457C10.3789 7.38997 10.3633 7.4401 10.3633 7.49609H9.89453C9.89453 7.38411 9.93034 7.27865 10.002 7.17969C10.0736 7.08073 10.1745 7.00065 10.3047 6.93945C10.4349 6.87826 10.5885 6.84766 10.7656 6.84766C10.9245 6.84766 11.0651 6.87435 11.1875 6.92773C11.3112 6.98112 11.4082 7.06185 11.4785 7.16992C11.5501 7.27669 11.5859 7.41081 11.5859 7.57227V8.51172C11.5859 8.60807 11.5924 8.69466 11.6055 8.77148C11.6198 8.84701 11.64 8.91276 11.666 8.96875V9H11.1836C11.1615 8.94922 11.1439 8.88477 11.1309 8.80664C11.1191 8.72721 11.1133 8.65039 11.1133 8.57617ZM11.1816 7.71484L11.1855 8.00586H10.8477C10.6719 8.00586 10.5397 8.03776 10.4512 8.10156C10.3626 8.16406 10.3184 8.25195 10.3184 8.36523C10.3184 8.45117 10.347 8.52279 10.4043 8.58008C10.4629 8.63737 10.5462 8.66602 10.6543 8.66602C10.7507 8.66602 10.8346 8.64648 10.9062 8.60742C10.9792 8.56706 11.0365 8.51823 11.0781 8.46094C11.1198 8.40234 11.1419 8.34701 11.1445 8.29492L11.2969 8.50391C11.2812 8.55729 11.2546 8.61458 11.2168 8.67578C11.179 8.73698 11.1296 8.79557 11.0684 8.85156C11.0085 8.90625 10.9362 8.95117 10.8516 8.98633C10.7682 9.02148 10.6719 9.03906 10.5625 9.03906C10.4245 9.03906 10.3014 9.01172 10.1934 8.95703C10.0853 8.90104 10.0007 8.82617 9.93945 8.73242C9.87826 8.63737 9.84766 8.52995 9.84766 8.41016C9.84766 8.1862 9.93099 8.01432 10.0977 7.89453C10.2656 7.77474 10.5039 7.71484 10.8125 7.71484H11.1816ZM12.5508 7.28906V9H12.0801V6.88672H12.5293L12.5508 7.28906ZM13.1973 6.87305L13.1934 7.31055C13.1647 7.30534 13.1335 7.30143 13.0996 7.29883C13.0671 7.29622 13.0345 7.29492 13.002 7.29492C12.8926 7.29492 12.8021 7.3151 12.7305 7.35547C12.6602 7.39583 12.6061 7.45247 12.5684 7.52539C12.5306 7.59701 12.5085 7.68229 12.502 7.78125L12.3945 7.78906C12.3945 7.61328 12.418 7.45443 12.4648 7.3125C12.5117 7.16927 12.582 7.05599 12.6758 6.97266C12.7695 6.88932 12.8874 6.84766 13.0293 6.84766C13.0579 6.84766 13.0885 6.85026 13.1211 6.85547C13.1549 6.86068 13.1803 6.86654 13.1973 6.87305Z" fill="white"/>
</svg>
