<svg width="1080" height="1080" viewBox="0 0 1080 1080" fill="none" xmlns="http://www.w3.org/2000/svg">
<rect width="1080" height="1080" fill="#1B202D"/>
<path d="M278.517 320.883L236.609 442.463H211.272L264.066 302.193H280.251L278.517 320.883ZM313.584 442.463L271.58 320.883L269.75 302.193H286.031L339.018 442.463H313.584ZM311.561 390.44V409.611H235.261V390.44H311.561Z" fill="#FFCD29"/>
<path d="M410.887 414.235C410.887 411.923 410.309 409.836 409.153 407.973C407.997 406.047 405.781 404.313 402.506 402.771C399.294 401.23 394.541 399.817 388.247 398.532C380.861 396.927 374.342 394.839 368.69 392.27C363.103 389.701 358.735 386.426 355.588 382.444C352.505 378.461 350.964 373.548 350.964 367.704C350.964 361.987 352.57 356.785 355.781 352.097C359.057 347.344 363.713 343.522 369.75 340.632C375.787 337.742 382.917 336.297 391.137 336.297C399.872 336.297 407.355 337.774 413.585 340.729C419.879 343.619 424.696 347.569 428.035 352.578C431.375 357.524 433.045 363.111 433.045 369.341H409.827C409.827 365.167 408.254 361.474 405.107 358.262C402.024 355.051 397.367 353.445 391.137 353.445C387.155 353.445 383.848 354.088 381.215 355.372C378.645 356.592 376.719 358.198 375.434 360.189C374.214 362.18 373.604 364.364 373.604 366.74C373.604 369.052 374.214 371.075 375.434 372.81C376.719 374.479 378.902 375.989 381.985 377.338C385.132 378.622 389.532 379.874 395.184 381.095C403.148 382.765 409.988 384.916 415.704 387.549C421.484 390.119 425.916 393.458 428.999 397.569C432.082 401.615 433.623 406.753 433.623 412.983C433.623 419.085 431.889 424.512 428.421 429.264C424.953 434.017 420.039 437.742 413.681 440.44C407.387 443.073 399.969 444.39 391.427 444.39C381.985 444.39 373.989 442.72 367.438 439.38C360.887 435.976 355.909 431.641 352.505 426.374C349.166 421.043 347.496 415.52 347.496 409.804H369.943C370.2 414.107 371.388 417.543 373.507 420.112C375.691 422.617 378.389 424.447 381.6 425.604C384.875 426.695 388.247 427.241 391.716 427.241C395.89 427.241 399.391 426.695 402.217 425.604C405.042 424.447 407.194 422.906 408.671 420.979C410.148 418.988 410.887 416.74 410.887 414.235ZM482.274 419.341L506.359 338.224H521.196L517.149 362.501L492.872 442.463H479.577L482.274 419.341ZM468.113 338.224L486.899 419.727L488.44 442.463H473.604L445.377 338.224H468.113ZM543.739 418.763L561.947 338.224H584.587L556.456 442.463H541.619L543.739 418.763ZM523.7 338.224L547.496 418.378L550.483 442.463H537.188L512.621 362.405L508.575 338.224H523.7ZM659.153 421.557V371.846C659.153 366.323 657.644 361.923 654.625 358.648C651.607 355.372 646.983 353.734 640.753 353.734C636.963 353.734 633.688 354.377 630.926 355.661C628.164 356.946 626.013 358.68 624.471 360.864C622.93 363.047 622.159 365.52 622.159 368.282H599.038C599.038 362.758 600.804 357.556 604.336 352.675C607.869 347.793 612.846 343.844 619.269 340.825C625.692 337.806 633.27 336.297 642.005 336.297C649.841 336.297 656.777 337.614 662.814 340.247C668.916 342.88 673.701 346.862 677.169 352.193C680.701 357.46 682.467 364.075 682.467 372.039V418.378C682.467 423.131 682.789 427.402 683.431 431.191C684.137 434.916 685.133 438.16 686.417 440.921V442.463H662.622C661.53 439.958 660.663 436.779 660.02 432.925C659.442 429.008 659.153 425.218 659.153 421.557ZM662.525 379.072L662.718 393.426H646.051C637.381 393.426 630.862 395 626.494 398.147C622.127 401.23 619.943 405.565 619.943 411.153C619.943 415.392 621.356 418.924 624.182 421.75C627.072 424.576 631.183 425.989 636.514 425.989C641.266 425.989 645.409 425.025 648.941 423.099C652.538 421.108 655.364 418.699 657.419 415.873C659.475 412.983 660.566 410.253 660.695 407.684L668.209 417.993C667.439 420.626 666.122 423.452 664.259 426.471C662.397 429.489 659.956 432.379 656.938 435.141C653.983 437.839 650.419 440.054 646.244 441.789C642.133 443.523 637.381 444.39 631.986 444.39C625.178 444.39 619.108 443.041 613.778 440.343C608.447 437.582 604.272 433.889 601.253 429.264C598.235 424.576 596.726 419.277 596.726 413.368C596.726 402.322 600.836 393.844 609.057 387.935C617.342 382.026 629.096 379.072 644.317 379.072H662.525ZM730.059 358.07V442.463H706.841V338.224H728.999L730.059 358.07ZM761.947 337.549L761.755 359.129C760.342 358.873 758.8 358.68 757.13 358.551C755.525 358.423 753.919 358.359 752.313 358.359C746.918 358.359 742.455 359.354 738.922 361.345C735.454 363.336 732.789 366.13 730.926 369.727C729.064 373.259 727.972 377.466 727.651 382.347L722.352 382.733C722.352 374.062 723.508 366.226 725.82 359.226C728.132 352.161 731.601 346.573 736.225 342.463C740.849 338.352 746.662 336.297 753.662 336.297C755.075 336.297 756.585 336.425 758.19 336.682C759.86 336.939 761.112 337.228 761.947 337.549Z" fill="white"/>
<path d="M751.904 712.959V728.566H696.557V712.959H751.904ZM701.976 669.535V774.737H682.106V669.535H701.976ZM766.644 669.535V774.737H746.774V669.535H766.644ZM786.875 669.535H825.098C833.094 669.535 839.958 670.739 845.69 673.147C851.423 675.556 855.83 679.12 858.913 683.841C861.996 688.562 863.537 694.366 863.537 701.254C863.537 706.697 862.574 711.418 860.647 715.416C858.72 719.414 855.999 722.762 852.482 725.46C849.014 728.157 844.92 730.276 840.199 731.818L833.985 734.997H800.242L800.098 719.318H825.315C829.409 719.318 832.805 718.595 835.502 717.15C838.2 715.705 840.223 713.706 841.572 711.153C842.969 708.6 843.667 705.686 843.667 702.41C843.667 697.16 842.15 692.993 839.115 689.91C836.081 686.779 831.408 685.214 825.098 685.214H806.745V774.737H786.875V669.535ZM846.268 774.737L821.919 727.627L842.945 727.555L867.583 773.725V774.737H846.268Z" fill="white"/>
<line x1="135.646" y1="582.66" x2="943.354" y2="582.66" stroke="#FFCD29" stroke-width="6.16571"/>
</svg>
